<svg width="335" height="167" viewBox="0 0 335 167" fill="none" xmlns="http://www.w3.org/2000/svg">
<path fill-rule="evenodd" clip-rule="evenodd" d="M16.1699 140.249C30.9593 155.825 57.3657 164 90.4522 164C104.925 164 120.683 162.433 137.295 159.237C192.218 148.677 248.508 121.684 293.008 84.7448C277.177 103.958 276.357 124.596 277.499 146.838C277.58 148.464 278.925 149.724 280.527 149.724C280.582 149.724 280.634 149.724 280.688 149.721C282.36 149.636 283.647 148.202 283.562 146.521C282.209 120.144 280.676 90.2479 330.402 63.4538C331.877 62.6562 332.432 60.8143 331.637 59.3316C330.842 57.849 329.018 57.2888 327.525 58.0895C284.785 81.1177 268.743 75.6407 248.443 68.7024C246.3 67.9687 244.115 67.2228 241.854 66.4922C240.27 65.9929 238.549 66.8575 238.033 68.4589C237.521 70.0572 238.398 71.7743 239.994 72.2888C242.222 73.0103 244.373 73.744 246.486 74.4655L246.52 74.4774C259.613 78.9486 271.593 83.0398 289.87 79.4259C193.927 159.642 60.7183 178.319 20.5887 136.05C-4.55604 109.567 11.4219 64.153 65.5817 8.16745C66.752 6.95992 66.7215 5.0297 65.5086 3.85571C64.3018 2.69087 62.3727 2.71526 61.1994 3.92889C-15.4051 83.1228 0.1066 123.331 16.1699 140.249ZM300.343 76.6996C300.353 76.7849 300.36 76.8706 300.363 76.9563C300.507 76.8221 300.652 76.688 300.797 76.554C300.645 76.603 300.494 76.6515 300.343 76.6996Z" fill="#00BF83"/>
<path d="M16.1699 140.249L13.9943 142.315L13.9943 142.315L16.1699 140.249ZM137.295 159.237L136.729 156.291L136.728 156.291L137.295 159.237ZM293.008 84.7448L295.324 86.6526L291.092 82.4365L293.008 84.7448ZM277.499 146.838L280.495 146.687L280.495 146.684L277.499 146.838ZM280.688 149.721L280.535 146.725L280.522 146.726L280.688 149.721ZM283.562 146.521L286.558 146.37L286.558 146.368L283.562 146.521ZM330.402 63.4538L331.825 66.0948L331.829 66.0926L330.402 63.4538ZM331.637 59.3316L334.281 57.9138L334.281 57.9138L331.637 59.3316ZM327.525 58.0895L326.107 55.4456L326.102 55.4485L327.525 58.0895ZM248.443 68.7024L247.471 71.5406L247.473 71.5412L248.443 68.7024ZM241.854 66.4922L242.777 63.6375L242.767 63.6342L242.756 63.6309L241.854 66.4922ZM238.033 68.4589L235.178 67.5389L235.177 67.5423L238.033 68.4589ZM239.994 72.2888L240.918 69.4348L240.914 69.4334L239.994 72.2888ZM246.486 74.4655L245.516 77.3045L245.517 77.3048L246.486 74.4655ZM246.52 74.4774L247.49 71.6383L247.489 71.6381L246.52 74.4774ZM289.87 79.4259L291.795 81.7275L289.289 76.4829L289.87 79.4259ZM20.5887 136.05L22.7644 133.984L22.7643 133.984L20.5887 136.05ZM65.5817 8.16745L63.4274 6.07966L63.4255 6.08158L65.5817 8.16745ZM65.5086 3.85571L67.5951 1.70009L67.592 1.6972L65.5086 3.85571ZM61.1994 3.92889L63.3557 6.01467L63.3563 6.01405L61.1994 3.92889ZM300.343 76.6996L299.433 73.8408L297.065 74.5945L297.365 77.0617L300.343 76.6996ZM300.363 76.9563L297.365 77.0673L297.608 83.6306L302.41 79.1495L300.363 76.9563ZM300.797 76.554L302.83 78.7604L299.875 73.6991L300.797 76.554ZM90.4522 161C57.7106 161 32.3073 152.887 18.3454 138.183L13.9943 142.315C29.6113 158.762 57.0209 167 90.4522 167V161ZM136.728 156.291C120.28 159.455 104.712 161 90.4522 161V167C105.137 167 121.087 165.41 137.862 162.183L136.728 156.291ZM291.092 82.4365C246.965 119.066 191.134 145.83 136.729 156.291L137.861 162.183C193.301 151.524 250.052 124.302 294.924 87.0532L291.092 82.4365ZM280.495 146.684C279.36 124.575 280.252 104.944 295.324 86.6526L290.693 82.8371C274.102 102.973 273.355 124.617 274.502 146.992L280.495 146.684ZM280.527 146.724C280.524 146.724 280.523 146.724 280.523 146.724C280.522 146.724 280.522 146.724 280.521 146.723C280.518 146.722 280.513 146.719 280.507 146.714C280.501 146.708 280.498 146.704 280.497 146.701C280.497 146.7 280.496 146.699 280.496 146.698C280.496 146.697 280.495 146.694 280.495 146.687L274.502 146.989C274.665 150.219 277.335 152.724 280.527 152.724V146.724ZM280.522 146.726C280.547 146.724 280.563 146.724 280.565 146.724C280.566 146.724 280.564 146.724 280.557 146.724C280.554 146.724 280.55 146.724 280.545 146.724C280.54 146.724 280.534 146.724 280.527 146.724V152.724C280.571 152.724 280.704 152.725 280.855 152.716L280.522 146.726ZM280.566 146.673C280.566 146.681 280.566 146.686 280.565 146.689C280.565 146.692 280.564 146.694 280.564 146.696C280.562 146.702 280.558 146.709 280.552 146.715C280.546 146.722 280.541 146.724 280.541 146.725C280.541 146.725 280.541 146.724 280.541 146.724C280.542 146.724 280.54 146.725 280.535 146.725L280.841 152.717C284.184 152.547 286.726 149.688 286.558 146.37L280.566 146.673ZM328.979 60.8128C303.677 74.4461 291.035 89.0878 285.043 104.027C279.099 118.847 279.893 133.562 280.566 146.675L286.558 146.368C285.878 133.104 285.229 119.682 290.612 106.261C295.947 92.9592 307.4 79.2556 331.825 66.0948L328.979 60.8128ZM328.993 60.7494C328.997 60.7562 328.998 60.7604 328.999 60.7622C328.999 60.7641 329 60.7658 329 60.7675C329 60.7714 329 60.7783 328.997 60.787C328.995 60.7957 328.991 60.8016 328.989 60.8046C328.988 60.806 328.985 60.8094 328.975 60.815L331.829 66.0926C334.756 64.5095 335.858 60.8543 334.281 57.9138L328.993 60.7494ZM328.943 60.7334C328.953 60.728 328.959 60.726 328.961 60.7252C328.964 60.7244 328.965 60.7242 328.966 60.7242C328.967 60.7241 328.968 60.7241 328.971 60.7249C328.974 60.7258 328.977 60.7272 328.978 60.7287C328.979 60.7294 328.981 60.7307 328.983 60.7331C328.985 60.7354 328.988 60.7404 328.993 60.7495L334.281 57.9138C332.707 54.9791 329.068 53.8577 326.107 55.4456L328.943 60.7334ZM247.473 71.5412C257.597 75.0015 267.191 78.3061 279.731 77.629C292.239 76.9537 307.382 72.3501 328.948 60.7305L326.102 55.4485C304.928 66.857 290.68 71.0291 279.407 71.6377C268.167 72.2447 259.589 69.3417 249.413 65.8637L247.473 71.5412ZM240.932 69.3468C243.165 70.0685 245.328 70.8066 247.471 71.5406L249.415 65.8642C247.273 65.1308 245.065 64.3771 242.777 63.6375L240.932 69.3468ZM240.889 69.3788C240.891 69.3733 240.892 69.3713 240.892 69.3713C240.892 69.3711 240.892 69.3709 240.893 69.3704C240.894 69.3691 240.898 69.3643 240.908 69.3593C240.918 69.3542 240.928 69.3518 240.935 69.3512C240.94 69.3507 240.944 69.3509 240.953 69.3534L242.756 63.6309C239.623 62.6436 236.208 64.3432 235.178 67.5389L240.889 69.3788ZM240.914 69.4334C240.909 69.4317 240.907 69.4304 240.906 69.4302C240.906 69.4299 240.905 69.4295 240.904 69.4289C240.903 69.4272 240.898 69.4225 240.894 69.414C240.889 69.4054 240.888 69.3979 240.887 69.3933C240.887 69.3912 240.887 69.3894 240.887 69.3875C240.887 69.3858 240.888 69.382 240.89 69.3755L235.177 67.5423C234.161 70.7092 235.894 74.1194 239.074 75.1441L240.914 69.4334ZM247.455 71.6266C245.345 70.9057 243.172 70.1646 240.918 69.4348L239.07 75.1428C241.271 75.856 243.402 76.5824 245.516 77.3045L247.455 71.6266ZM247.489 71.6381L247.454 71.6263L245.517 77.3048L245.551 77.3166L247.489 71.6381ZM289.289 76.4829C271.845 79.9318 260.521 76.0886 247.49 71.6383L245.551 77.3164C258.705 81.8086 271.34 86.1478 290.452 82.3689L289.289 76.4829ZM18.413 138.115C29.0776 149.349 45.6635 156.288 65.6573 159.282C85.6952 162.283 109.453 161.37 134.851 156.619C185.646 147.116 243.411 122.179 291.795 81.7275L287.946 77.1244C240.386 116.888 183.576 141.399 133.748 150.721C108.835 155.382 85.7694 156.227 66.5459 153.348C47.2784 150.463 32.1646 143.886 22.7644 133.984L18.413 138.115ZM63.4255 6.08158C36.2176 34.2067 18.3451 59.924 10.516 82.1763C2.64783 104.54 4.83311 123.813 18.4131 138.116L22.7643 133.984C11.1996 121.804 8.80143 105.128 16.176 84.1677C23.5896 63.096 40.786 38.1138 67.7379 10.2533L63.4255 6.08158ZM63.4221 6.01132C63.428 6.01705 63.4309 6.02092 63.4322 6.02283C63.4336 6.02488 63.4346 6.0267 63.4354 6.0286C63.4372 6.03277 63.4391 6.03974 63.4392 6.04879C63.4394 6.05787 63.4377 6.06424 63.4365 6.06725C63.436 6.06857 63.4355 6.06964 63.4347 6.07084C63.434 6.07189 63.4321 6.07483 63.4274 6.07966L67.7361 10.2552C70.0622 7.85493 69.9965 4.02453 67.595 1.7001L63.4221 6.01132ZM63.3563 6.01405C63.3616 6.0086 63.3649 6.00622 63.3661 6.00539C63.3675 6.00445 63.3686 6.00385 63.3699 6.00331C63.3727 6.00209 63.3791 6.00015 63.3884 6.00001C63.3978 5.99986 63.4052 6.00163 63.4098 6.00338C63.4123 6.00437 63.4168 6.00619 63.4251 6.01423L67.592 1.6972C65.2005 -0.611158 61.3733 -0.567172 59.0426 1.84373L63.3563 6.01405ZM18.3454 138.183C10.8627 130.302 3.38122 116.94 6.89316 95.9372C10.439 74.7318 25.244 45.4146 63.3557 6.01467L59.0432 1.84312C20.5503 41.6371 4.80896 72.0211 0.975318 94.9477C-2.89222 118.077 5.4138 133.278 13.9943 142.315L18.3454 138.183ZM297.365 77.0617C297.365 77.0636 297.365 77.0655 297.365 77.0673L303.361 76.8452C303.355 76.6756 303.342 76.5062 303.321 76.3375L297.365 77.0617ZM302.41 79.1495C302.549 79.0196 302.689 78.8899 302.83 78.7604L298.764 74.3477C298.614 74.4862 298.465 74.6246 298.316 74.763L302.41 79.1495ZM299.875 73.6991C299.728 73.7468 299.58 73.794 299.433 73.8408L301.253 79.5583C301.407 79.509 301.563 79.4593 301.719 79.409L299.875 73.6991Z" fill="#00BF83"/>
</svg>
