<svg width="36" height="29" viewBox="0 0 36 29" fill="none" xmlns="http://www.w3.org/2000/svg">
<path d="M26.197 0C23.0644 0 19.9645 1.3677 17.9992 3.45492C16.0347 1.3677 12.9347 0 9.80214 0C4.39708 0 0 4.21911 0 9.40541C0 11.4597 0.677981 13.4113 1.96043 15.0494C2.0658 15.1842 2.19405 15.2893 2.33046 15.3818L13.5678 26.9339L13.5686 26.9347C14.6191 28.1919 16.2095 28.9506 17.8881 28.9914C17.9159 28.9937 17.942 29 17.9706 29C17.9804 29 17.9902 28.9984 18 28.9984C18.0098 28.9984 18.0196 29 18.0294 29C18.058 29 18.0841 28.9937 18.1127 28.9922C19.7905 28.9514 21.3801 28.1927 22.4306 26.9363C22.4314 26.9355 22.4322 26.9347 22.433 26.9339L33.6704 15.381C33.8068 15.2885 33.935 15.1835 34.0404 15.0486C35.322 13.4105 36 11.4589 36 9.40541C35.9992 4.21911 31.6021 0 26.197 0ZM9.80214 3.13514C12.5982 3.13514 15.5413 4.78735 16.5027 6.8973C16.5174 6.93022 16.5395 6.95765 16.5566 6.989C16.5844 7.04073 16.6122 7.09246 16.6457 7.14105C16.6743 7.18181 16.7069 7.21865 16.7396 7.25705C16.7747 7.29781 16.8082 7.33935 16.8474 7.37697C16.8858 7.41381 16.9275 7.44516 16.9691 7.47808C17.0092 7.50943 17.0484 7.54235 17.0925 7.57057C17.1423 7.6027 17.1946 7.62778 17.2477 7.65443C17.2812 7.67089 17.3106 7.69284 17.3449 7.70695C17.3547 7.71087 17.3653 7.71243 17.3751 7.71635C17.4307 7.7383 17.4887 7.75319 17.5466 7.76965C17.5924 7.78219 17.6381 7.79865 17.6839 7.80727C17.737 7.81746 17.7909 7.81981 17.8456 7.82451C17.8971 7.82922 17.9485 7.83705 17.9992 7.83705C18.0506 7.83705 18.1013 7.82922 18.1528 7.82451C18.2075 7.81981 18.2614 7.81746 18.3153 7.80727C18.3602 7.79865 18.4043 7.78297 18.4484 7.77043C18.5081 7.75397 18.5677 7.7383 18.6249 7.71557C18.6339 7.71165 18.6437 7.71087 18.6527 7.70695C18.6853 7.69284 18.7131 7.67324 18.745 7.65757C18.8005 7.63014 18.8552 7.60349 18.9075 7.56978C18.95 7.54235 18.9867 7.51178 19.026 7.48122C19.0693 7.44751 19.1125 7.41459 19.1518 7.37697C19.1901 7.34013 19.2228 7.30016 19.2571 7.26019C19.2898 7.22178 19.3233 7.18416 19.3527 7.14262C19.3862 7.09403 19.4131 7.04308 19.4409 6.99135C19.4581 6.96 19.4801 6.93178 19.4948 6.89886C20.4563 4.78892 23.3993 3.1367 26.1954 3.1367C29.7985 3.1367 32.7302 5.9497 32.7302 9.40697C32.7302 10.7018 32.3136 11.9284 31.5474 12.9818C31.5253 13.0022 31.4992 13.0179 31.4779 13.0398L20.0421 24.7966C20.0209 24.8185 20.0062 24.8444 19.9858 24.8671C19.9678 24.8875 19.9474 24.9032 19.9302 24.9251C19.4679 25.5153 18.7646 25.8539 17.9976 25.8625C17.2313 25.8539 16.528 25.5153 16.0657 24.9251C16.0486 24.9032 16.0265 24.8867 16.0085 24.8655C15.9889 24.8428 15.975 24.8185 15.9538 24.7966L4.51797 13.0398C4.49591 13.0171 4.47059 13.0014 4.44772 12.981C3.68397 11.9268 3.26738 10.7002 3.26738 9.40541C3.26738 5.94814 6.19904 3.13514 9.80214 3.13514Z" fill="#666666"/>
</svg>
