<svg width="335" height="167" viewBox="0 0 335 167" fill="none" xmlns="http://www.w3.org/2000/svg">
<path fill-rule="evenodd" clip-rule="evenodd" d="M318.83 140.249C304.041 155.825 277.634 164 244.548 164C230.075 164 214.317 162.433 197.705 159.237C142.782 148.677 86.4917 121.684 41.9918 84.7448C57.8229 103.958 58.6426 124.596 57.5015 146.838C57.4195 148.464 56.0751 149.724 54.4727 149.724C54.4181 149.724 54.3665 149.724 54.3119 149.721C52.6396 149.636 51.3529 148.202 51.4379 146.521C52.7914 120.144 54.324 90.2479 4.59814 63.4538C3.1232 62.6562 2.56784 60.8143 3.36295 59.3316C4.15808 57.849 5.98203 57.2888 7.47516 58.0895C50.2148 81.1177 66.257 75.6407 86.557 68.7024C88.6996 67.9687 90.8847 67.2228 93.1457 66.4922C94.7299 65.9929 96.4506 66.8575 96.9665 68.4589C97.4794 70.0572 96.6024 71.7743 95.006 72.2888C92.7785 73.0103 90.6268 73.744 88.5145 74.4655L88.4799 74.4774C75.3871 78.9486 63.4072 83.0398 45.1296 79.4259C141.073 159.642 274.282 178.319 314.411 136.05C339.556 109.567 323.578 64.153 269.418 8.16745C268.248 6.95992 268.279 5.0297 269.491 3.85571C270.698 2.69087 272.627 2.71526 273.801 3.92889C350.405 83.1228 334.893 123.331 318.83 140.249ZM34.6571 76.6996C34.6467 76.7849 34.6399 76.8706 34.6367 76.9563C34.493 76.8221 34.3484 76.688 34.203 76.554C34.3548 76.603 34.5061 76.6515 34.6571 76.6996Z" fill="#509BF5"/>
<path d="M318.83 140.249L321.006 142.315L321.006 142.315L318.83 140.249ZM197.705 159.237L198.271 156.291L198.272 156.291L197.705 159.237ZM41.9918 84.7448L39.6765 86.6526L43.9079 82.4365L41.9918 84.7448ZM57.5015 146.838L54.5053 146.687L54.5054 146.684L57.5015 146.838ZM54.3119 149.721L54.4646 146.725L54.4784 146.726L54.3119 149.721ZM51.4379 146.521L48.4417 146.37L48.4418 146.368L51.4379 146.521ZM4.59814 63.4538L3.17507 66.0948L3.17108 66.0926L4.59814 63.4538ZM3.36295 59.3316L0.719123 57.9138L0.719146 57.9138L3.36295 59.3316ZM7.47516 58.0895L8.89292 55.4456L8.89815 55.4485L7.47516 58.0895ZM86.557 68.7024L87.5289 71.5406L87.5273 71.5412L86.557 68.7024ZM93.1457 66.4922L92.2231 63.6375L92.2335 63.6342L92.2439 63.6309L93.1457 66.4922ZM96.9665 68.4589L99.822 67.5389L99.8231 67.5423L96.9665 68.4589ZM95.006 72.2888L94.0816 69.4348L94.0857 69.4334L95.006 72.2888ZM88.5145 74.4655L89.4842 77.3045L89.4834 77.3048L88.5145 74.4655ZM88.4799 74.4774L87.5104 71.6383L87.5109 71.6381L88.4799 74.4774ZM45.1296 79.4259L43.2053 81.7275L45.7115 76.4829L45.1296 79.4259ZM314.411 136.05L312.236 133.984L312.236 133.984L314.411 136.05ZM269.418 8.16745L271.573 6.07966L271.574 6.08158L269.418 8.16745ZM269.491 3.85571L267.405 1.70009L267.408 1.6972L269.491 3.85571ZM273.801 3.92889L271.644 6.01467L271.644 6.01405L273.801 3.92889ZM34.6571 76.6996L35.5668 73.8408L37.9351 74.5945L37.6351 77.0617L34.6571 76.6996ZM34.6367 76.9563L37.6347 77.0673L37.3916 83.6306L32.5899 79.1495L34.6367 76.9563ZM34.203 76.554L32.1703 78.7604L35.1246 73.6991L34.203 76.554ZM244.548 161C277.289 161 302.693 152.887 316.655 138.183L321.006 142.315C305.389 158.762 277.979 167 244.548 167V161ZM198.272 156.291C214.72 159.455 230.288 161 244.548 161V167C229.863 167 213.913 165.41 197.138 162.183L198.272 156.291ZM43.9079 82.4365C88.0351 119.066 143.866 145.83 198.271 156.291L197.139 162.183C141.699 151.524 84.9483 124.302 40.0756 87.0532L43.9079 82.4365ZM54.5054 146.684C55.6397 124.575 54.7476 104.944 39.6765 86.6526L44.3071 82.8371C60.8981 102.973 61.6454 124.617 60.4975 146.992L54.5054 146.684ZM54.4727 146.724C54.4759 146.724 54.4773 146.724 54.4774 146.724C54.4777 146.724 54.4782 146.724 54.4793 146.723C54.4819 146.722 54.4873 146.719 54.4931 146.714C54.4988 146.708 54.5017 146.704 54.5028 146.701C54.5032 146.7 54.5036 146.699 54.5039 146.698C54.5042 146.697 54.5049 146.694 54.5053 146.687L60.4977 146.989C60.3349 150.219 57.6654 152.724 54.4727 152.724V146.724ZM54.4784 146.726C54.4534 146.724 54.437 146.724 54.4352 146.724C54.4344 146.724 54.4363 146.724 54.4428 146.724C54.446 146.724 54.4499 146.724 54.455 146.724C54.4602 146.724 54.4656 146.724 54.4727 146.724V152.724C54.4295 152.724 54.2962 152.725 54.1454 152.716L54.4784 146.726ZM54.434 146.673C54.4336 146.681 54.4342 146.686 54.4346 146.689C54.435 146.692 54.4356 146.694 54.4365 146.696C54.4384 146.702 54.4421 146.709 54.4481 146.715C54.454 146.722 54.4586 146.724 54.4592 146.725C54.4594 146.725 54.4591 146.724 54.4588 146.724C54.4583 146.724 54.4599 146.725 54.4646 146.725L54.1591 152.717C50.8158 152.547 48.2739 149.688 48.4417 146.37L54.434 146.673ZM6.02121 60.8128C31.3226 74.4461 43.9653 89.0878 49.9572 104.027C55.9008 118.847 55.1068 133.562 54.4339 146.675L48.4418 146.368C49.1224 133.104 49.7715 119.682 44.3884 106.261C39.0535 92.9592 27.5995 79.2556 3.17508 66.0948L6.02121 60.8128ZM6.00677 60.7494C6.00312 60.7562 6.00174 60.7604 6.0012 60.7622C6.00061 60.7641 6.0003 60.7658 6.00014 60.7675C5.99978 60.7714 5.99997 60.7783 6.00258 60.787C6.00519 60.7957 6.00886 60.8016 6.0113 60.8046C6.01242 60.806 6.015 60.8094 6.02521 60.815L3.17108 66.0926C0.243645 64.5095 -0.857778 60.8543 0.719123 57.9138L6.00677 60.7494ZM6.0574 60.7334C6.04749 60.728 6.04132 60.726 6.03874 60.7252C6.036 60.7244 6.03464 60.7242 6.03425 60.7242C6.03347 60.7241 6.03172 60.7241 6.02886 60.7249C6.02591 60.7258 6.0235 60.7272 6.02165 60.7287C6.02077 60.7294 6.01933 60.7307 6.01732 60.7331C6.01541 60.7354 6.01163 60.7404 6.00675 60.7495L0.719146 57.9138C2.293 54.9791 5.93162 53.8577 8.89292 55.4456L6.0574 60.7334ZM87.5273 71.5412C77.4032 75.0015 67.8094 78.3061 55.2692 77.629C42.7608 76.9537 27.6178 72.3501 6.05217 60.7305L8.89815 55.4485C30.0721 66.857 44.3201 71.0291 55.5927 71.6377C66.8335 72.2447 75.4108 69.3417 85.5868 65.8637L87.5273 71.5412ZM94.0682 69.3468C91.8349 70.0685 89.6723 70.8066 87.5289 71.5406L85.5851 65.8642C87.7269 65.1308 89.9345 64.3771 92.2231 63.6375L94.0682 69.3468ZM94.1111 69.3788C94.1093 69.3733 94.1081 69.3713 94.1081 69.3713C94.108 69.3711 94.1079 69.3709 94.1075 69.3704C94.1063 69.3691 94.1016 69.3643 94.0918 69.3593C94.0818 69.3542 94.0721 69.3518 94.0652 69.3512C94.0602 69.3507 94.0556 69.3509 94.0474 69.3534L92.2439 63.6309C95.3766 62.6436 98.7924 64.3432 99.822 67.5389L94.1111 69.3788ZM94.0857 69.4334C94.0911 69.4317 94.0933 69.4304 94.0937 69.4302C94.0943 69.4299 94.0948 69.4295 94.0956 69.4289C94.0975 69.4272 94.102 69.4225 94.1064 69.414C94.1108 69.4054 94.1125 69.3979 94.1129 69.3933C94.1131 69.3912 94.113 69.3894 94.1128 69.3875C94.1126 69.3858 94.1121 69.382 94.11 69.3755L99.8231 67.5423C100.839 70.7092 99.1057 74.1194 95.9263 75.1441L94.0857 69.4334ZM87.5447 71.6266C89.6553 70.9057 91.8283 70.1646 94.0816 69.4348L95.9305 75.1428C93.7287 75.856 91.5982 76.5824 89.4842 77.3045L87.5447 71.6266ZM87.5109 71.6381L87.5456 71.6263L89.4834 77.3048L89.4488 77.3166L87.5109 71.6381ZM45.7115 76.4829C63.1546 79.9318 74.4789 76.0886 87.5104 71.6383L89.4494 77.3164C76.2952 81.8086 63.6597 86.1478 44.5477 82.3689L45.7115 76.4829ZM316.587 138.115C305.922 149.349 289.337 156.288 269.343 159.282C249.305 162.283 225.547 161.37 200.149 156.619C149.354 147.116 91.5885 122.179 43.2053 81.7275L47.0538 77.1244C94.6139 116.888 151.424 141.399 201.252 150.721C226.165 155.382 249.231 156.227 268.454 153.348C287.722 150.463 302.835 143.886 312.236 133.984L316.587 138.115ZM271.574 6.08158C298.782 34.2067 316.655 59.924 324.484 82.1763C332.352 104.54 330.167 123.813 316.587 138.116L312.236 133.984C323.8 121.804 326.199 105.128 318.824 84.1677C311.41 63.096 294.214 38.1138 267.262 10.2533L271.574 6.08158ZM271.578 6.01132C271.572 6.01705 271.569 6.02092 271.568 6.02283C271.566 6.02488 271.565 6.0267 271.565 6.0286C271.563 6.03277 271.561 6.03974 271.561 6.04879C271.561 6.05787 271.562 6.06424 271.563 6.06725C271.564 6.06857 271.565 6.06964 271.565 6.07084C271.566 6.07189 271.568 6.07483 271.573 6.07966L267.264 10.2552C264.938 7.85493 265.003 4.02453 267.405 1.7001L271.578 6.01132ZM271.644 6.01405C271.638 6.0086 271.635 6.00622 271.634 6.00539C271.633 6.00445 271.631 6.00385 271.63 6.00331C271.627 6.00209 271.621 6.00015 271.612 6.00001C271.602 5.99986 271.595 6.00163 271.59 6.00338C271.588 6.00437 271.583 6.00619 271.575 6.01423L267.408 1.6972C269.799 -0.611158 273.627 -0.567172 275.957 1.84373L271.644 6.01405ZM316.655 138.183C324.137 130.302 331.619 116.94 328.107 95.9372C324.561 74.7318 309.756 45.4146 271.644 6.01467L275.957 1.84312C314.45 41.6371 330.191 72.0211 334.025 94.9477C337.892 118.077 329.586 133.278 321.006 142.315L316.655 138.183ZM37.6351 77.0617C37.6349 77.0636 37.6348 77.0655 37.6347 77.0673L31.6388 76.8452C31.6451 76.6756 31.6585 76.5062 31.679 76.3375L37.6351 77.0617ZM32.5899 79.1495C32.4507 79.0196 32.3109 78.8899 32.1703 78.7604L36.2357 74.3477C36.386 74.4862 36.5353 74.6246 36.6836 74.763L32.5899 79.1495ZM35.1246 73.6991C35.2723 73.7468 35.4198 73.794 35.5668 73.8408L33.7473 79.5583C33.5925 79.509 33.4372 79.4593 33.2814 79.409L35.1246 73.6991Z" fill="#509BF5"/>
</svg>
